
<svg xmlns="http://www.w3.org/2000/svg" width="1440" height="900"><path d="M795,499L797,574L848,510Z" fill="#69c0cb" stroke="#69c0cb" stroke-width="1.51"/><path d="M848,510L854,434L795,499Z" fill="#6dc3ca" stroke="#6dc3ca" stroke-width="1.51"/><path d="M797,574L901,619L848,510Z" fill="#5fbbcf" stroke="#5fbbcf" stroke-width="1.51"/><path d="M1006,472L938,382L854,434Z" fill="#6dc1ca" stroke="#6dc1ca" stroke-width="1.51"/><path d="M795,499L675,532L797,574Z" fill="#6dc3ca" stroke="#6dc3ca" stroke-width="1.51"/><path d="M797,574L852,699L901,619Z" fill="#57b4ce" stroke="#57b4ce" stroke-width="1.51"/><path d="M649,415L675,532L795,499Z" fill="#79cac5" stroke="#79cac5" stroke-width="1.51"/><path d="M901,619L934,615L848,510Z" fill="#58b7d1" stroke="#58b7d1" stroke-width="1.51"/><path d="M854,434L791,381L795,499Z" fill="#75c7c7" stroke="#75c7c7" stroke-width="1.51"/><path d="M648,597L737,676L797,574Z" fill="#65bdcb" stroke="#65bdcb" stroke-width="1.51"/><path d="M901,619L982,704L934,615Z" fill="#4badd0" stroke="#4badd0" stroke-width="1.51"/><path d="M737,676L852,699L797,574Z" fill="#5bb5cb" stroke="#5bb5cb" stroke-width="1.51"/><path d="M675,532L648,597L797,574Z" fill="#6ec2ca" stroke="#6ec2ca" stroke-width="1.51"/><path d="M854,434L938,382L791,381Z" fill="#79c7c6" stroke="#79c7c6" stroke-width="1.51"/><path d="M1006,472L854,434L848,510Z" fill="#69c0cb" stroke="#69c0cb" stroke-width="1.51"/><path d="M934,615L1006,472L848,510Z" fill="#5cb9cf" stroke="#5cb9cf" stroke-width="1.51"/><path d="M791,381L649,415L795,499Z" fill="#7ccbc4" stroke="#7ccbc4" stroke-width="1.51"/><path d="M675,532L595,508L648,597Z" fill="#78c7c7" stroke="#78c7c7" stroke-width="1.51"/><path d="M737,676L806,805L852,699Z" fill="#54abc6" stroke="#54abc6" stroke-width="1.51"/><path d="M648,597L675,697L737,676Z" fill="#67b9c7" stroke="#67b9c7" stroke-width="1.51"/><path d="M649,415L595,508L675,532Z" fill="#80ccc4" stroke="#80ccc4" stroke-width="1.51"/><path d="M648,597L587,668L675,697Z" fill="#6ebbc6" stroke="#6ebbc6" stroke-width="1.51"/><path d="M852,699L982,704L901,619Z" fill="#4cabcd" stroke="#4cabcd" stroke-width="1.51"/><path d="M934,615L1055,490L1006,472Z" fill="#58b4cd" stroke="#58b4cd" stroke-width="1.51"/><path d="M861,827L982,704L852,699Z" fill="#46a3c8" stroke="#46a3c8" stroke-width="1.51"/><path d="M1098,598L1055,490L934,615Z" fill="#4faece" stroke="#4faece" stroke-width="1.51"/><path d="M1046,405L963,318L938,382Z" fill="#75c1c6" stroke="#75c1c6" stroke-width="1.51"/><path d="M791,381L669,329L649,415Z" fill="#89d0c0" stroke="#89d0c0" stroke-width="1.51"/><path d="M885,279L775,293L791,381Z" fill="#89cec1" stroke="#89cec1" stroke-width="1.51"/><path d="M775,293L669,329L791,381Z" fill="#8cd1c0" stroke="#8cd1c0" stroke-width="1.51"/><path d="M649,415L545,432L595,508Z" fill="#89d0c0" stroke="#89d0c0" stroke-width="1.51"/><path d="M526,590L587,668L648,597Z" fill="#77c2c6" stroke="#77c2c6" stroke-width="1.51"/><path d="M938,382L885,279L791,381Z" fill="#81c9c4" stroke="#81c9c4" stroke-width="1.51"/><path d="M1046,405L938,382L1006,472Z" fill="#6abcc8" stroke="#6abcc8" stroke-width="1.51"/><path d="M1055,490L1046,405L1006,472Z" fill="#62b7c8" stroke="#62b7c8" stroke-width="1.51"/><path d="M963,318L885,279L938,382Z" fill="#80c7c5" stroke="#80c7c5" stroke-width="1.51"/><path d="M675,697L806,805L737,676Z" fill="#5baec4" stroke="#5baec4" stroke-width="1.51"/><path d="M630,778L806,805L675,697Z" fill="#5cabc0" stroke="#5cabc0" stroke-width="1.51"/><path d="M608,280L545,432L649,415Z" fill="#94d4bd" stroke="#94d4bd" stroke-width="1.51"/><path d="M595,508L526,590L648,597Z" fill="#7cc7c6" stroke="#7cc7c6" stroke-width="1.51"/><path d="M982,704L1098,598L934,615Z" fill="#46a9ce" stroke="#46a9ce" stroke-width="1.51"/><path d="M1055,490L1150,476L1046,405Z" fill="#5eb3c6" stroke="#5eb3c6" stroke-width="1.51"/><path d="M449,530L526,590L595,508Z" fill="#86ccc2" stroke="#86ccc2" stroke-width="1.51"/><path d="M806,805L861,827L852,699Z" fill="#4ba2c4" stroke="#4ba2c4" stroke-width="1.51"/><path d="M982,704L1060,704L1098,598Z" fill="#40a1ca" stroke="#40a1ca" stroke-width="1.51"/><path d="M955,838L1060,704L982,704Z" fill="#3b9bc7" stroke="#3b9bc7" stroke-width="1.51"/><path d="M587,668L630,778L675,697Z" fill="#69b4c1" stroke="#69b4c1" stroke-width="1.51"/><path d="M806,805L810,875L861,827Z" fill="#4a9bc0" stroke="#4a9bc0" stroke-width="1.51"/><path d="M505,785L630,778L587,668Z" fill="#6eb2bd" stroke="#6eb2bd" stroke-width="1.51"/><path d="M775,293L763,214L669,329Z" fill="#94d4be" stroke="#94d4be" stroke-width="1.51"/><path d="M669,329L608,280L649,415Z" fill="#94d5bc" stroke="#94d5bc" stroke-width="1.51"/><path d="M885,279L763,214L775,293Z" fill="#92d1c2" stroke="#92d1c2" stroke-width="1.51"/><path d="M891,188L763,214L885,279Z" fill="#93d1c5" stroke="#93d1c5" stroke-width="1.51"/><path d="M683,178L608,280L669,329Z" fill="#9ed8bd" stroke="#9ed8bd" stroke-width="1.51"/><path d="M526,590L497,623L587,668Z" fill="#7cc3c4" stroke="#7cc3c4" stroke-width="1.51"/><path d="M449,530L497,623L526,590Z" fill="#85c9c3" stroke="#85c9c3" stroke-width="1.51"/><path d="M861,827L955,838L982,704Z" fill="#3e9cc6" stroke="#3e9cc6" stroke-width="1.51"/><path d="M1098,598L1150,476L1055,490Z" fill="#53acc8" stroke="#53acc8" stroke-width="1.51"/><path d="M1060,704L1136,643L1098,598Z" fill="#3ea0c9" stroke="#3ea0c9" stroke-width="1.51"/><path d="M1159,676L1136,643L1060,704Z" fill="#3a9ac6" stroke="#3a9ac6" stroke-width="1.51"/><path d="M668,901L810,875L806,805Z" fill="#509bbc" stroke="#509bbc" stroke-width="1.51"/><path d="M861,827L842,917L955,838Z" fill="#4195c0" stroke="#4195c0" stroke-width="1.51"/><path d="M1136,643L1150,476L1098,598Z" fill="#48a6c9" stroke="#48a6c9" stroke-width="1.51"/><path d="M978,184L885,279L963,318Z" fill="#88cac7" stroke="#88cac7" stroke-width="1.51"/><path d="M497,623L496,690L587,668Z" fill="#7abec2" stroke="#7abec2" stroke-width="1.51"/><path d="M978,184L891,188L885,279Z" fill="#90cdc8" stroke="#90cdc8" stroke-width="1.51"/><path d="M1097,317L963,318L1046,405Z" fill="#76bec3" stroke="#76bec3" stroke-width="1.51"/><path d="M1133,323L1097,317L1046,405Z" fill="#72b8c1" stroke="#72b8c1" stroke-width="1.51"/><path d="M545,432L449,530L595,508Z" fill="#8bcfc0" stroke="#8bcfc0" stroke-width="1.51"/><path d="M497,623L399,662L496,690Z" fill="#81c1c2" stroke="#81c1c2" stroke-width="1.51"/><path d="M462,420L449,530L545,432Z" fill="#92d3be" stroke="#92d3be" stroke-width="1.51"/><path d="M1137,825L1159,676L1060,704Z" fill="#3392c1" stroke="#3392c1" stroke-width="1.51"/><path d="M1136,643L1253,476L1150,476Z" fill="#4ca4c5" stroke="#4ca4c5" stroke-width="1.51"/><path d="M454,313L462,420L545,432Z" fill="#9cd8ba" stroke="#9cd8ba" stroke-width="1.51"/><path d="M608,280L454,313L545,432Z" fill="#9ed9b9" stroke="#9ed9b9" stroke-width="1.51"/><path d="M763,214L683,178L669,329Z" fill="#9cd7bf" stroke="#9cd7bf" stroke-width="1.51"/><path d="M738,92L683,178L763,214Z" fill="#a4dac5" stroke="#a4dac5" stroke-width="1.51"/><path d="M810,875L842,917L861,827Z" fill="#4696be" stroke="#4696be" stroke-width="1.51"/><path d="M741,1009L842,917L810,875Z" fill="#4990b6" stroke="#4990b6" stroke-width="1.51"/><path d="M1253,476L1173,402L1150,476Z" fill="#5aaac1" stroke="#5aaac1" stroke-width="1.51"/><path d="M1150,476L1173,402L1046,405Z" fill="#62b1c3" stroke="#62b1c3" stroke-width="1.51"/><path d="M1173,402L1133,323L1046,405Z" fill="#6cb4c1" stroke="#6cb4c1" stroke-width="1.51"/><path d="M1092,217L978,184L963,318Z" fill="#87c4c5" stroke="#87c4c5" stroke-width="1.51"/><path d="M1092,217L963,318L1097,317Z" fill="#7fbfc1" stroke="#7fbfc1" stroke-width="1.51"/><path d="M891,188L738,92L763,214Z" fill="#9fd6c6" stroke="#9fd6c6" stroke-width="1.51"/><path d="M630,778L668,901L806,805Z" fill="#59a2bd" stroke="#59a2bd" stroke-width="1.51"/><path d="M548,877L668,901L630,778Z" fill="#63a2b8" stroke="#63a2b8" stroke-width="1.51"/><path d="M496,690L505,785L587,668Z" fill="#76b7be" stroke="#76b7be" stroke-width="1.51"/><path d="M397,778L505,785L496,690Z" fill="#79b4bc" stroke="#79b4bc" stroke-width="1.51"/><path d="M505,785L541,831L630,778Z" fill="#6dabba" stroke="#6dabba" stroke-width="1.51"/><path d="M449,530L399,662L497,623Z" fill="#86c9c6" stroke="#86c9c6" stroke-width="1.51"/><path d="M462,420L403,488L449,530Z" fill="#95d3c0" stroke="#95d3c0" stroke-width="1.51"/><path d="M955,838L1095,842L1060,704Z" fill="#3492c2" stroke="#3492c2" stroke-width="1.51"/><path d="M1002,935L1095,842L955,838Z" fill="#318abe" stroke="#318abe" stroke-width="1.51"/><path d="M683,178L550,213L608,280Z" fill="#a7dcbd" stroke="#a7dcbd" stroke-width="1.51"/><path d="M462,420L385,367L403,488Z" fill="#9dd8be" stroke="#9dd8be" stroke-width="1.51"/><path d="M1159,187L1092,217L1133,323Z" fill="#80babf" stroke="#80babf" stroke-width="1.51"/><path d="M1133,323L1092,217L1097,317Z" fill="#7cbabe" stroke="#7cbabe" stroke-width="1.51"/><path d="M550,213L454,313L608,280Z" fill="#a8ddb8" stroke="#a8ddb8" stroke-width="1.51"/><path d="M1095,842L1137,825L1060,704Z" fill="#2f8ebf" stroke="#2f8ebf" stroke-width="1.51"/><path d="M541,831L548,877L630,778Z" fill="#69a7b8" stroke="#69a7b8" stroke-width="1.51"/><path d="M448,910L548,877L541,831Z" fill="#6fa3b4" stroke="#6fa3b4" stroke-width="1.51"/><path d="M326,638L399,662L449,530Z" fill="#8bcac8" stroke="#8bcac8" stroke-width="1.51"/><path d="M505,785L448,910L541,831Z" fill="#71a8b5" stroke="#71a8b5" stroke-width="1.51"/><path d="M1011,110L908,108L978,184Z" fill="#96cdcd" stroke="#96cdcd" stroke-width="1.51"/><path d="M978,184L908,108L891,188Z" fill="#96cfcc" stroke="#96cfcc" stroke-width="1.51"/><path d="M683,178L579,127L550,213Z" fill="#addfbf" stroke="#addfbf" stroke-width="1.51"/><path d="M1095,842L1080,939L1137,825Z" fill="#2984ba" stroke="#2984ba" stroke-width="1.51"/><path d="M842,917L1002,935L955,838Z" fill="#388ec0" stroke="#388ec0" stroke-width="1.51"/><path d="M962,1012L1002,935L842,917Z" fill="#3686b7" stroke="#3686b7" stroke-width="1.51"/><path d="M1298,626L1136,643L1159,676Z" fill="#3897c4" stroke="#3897c4" stroke-width="1.51"/><path d="M1298,626L1253,476L1136,643Z" fill="#409cc6" stroke="#409cc6" stroke-width="1.51"/><path d="M1173,402L1238,302L1133,323Z" fill="#6fb0bc" stroke="#6fb0bc" stroke-width="1.51"/><path d="M908,108L738,92L891,188Z" fill="#9ed5ca" stroke="#9ed5ca" stroke-width="1.51"/><path d="M454,313L385,367L462,420Z" fill="#a4dbbb" stroke="#a4dbbb" stroke-width="1.51"/><path d="M403,488L326,638L449,530Z" fill="#91cfc5" stroke="#91cfc5" stroke-width="1.51"/><path d="M327,297L385,367L454,313Z" fill="#addfba" stroke="#addfba" stroke-width="1.51"/><path d="M1092,217L1011,110L978,184Z" fill="#8fc6c8" stroke="#8fc6c8" stroke-width="1.51"/><path d="M908,108L786,14L738,92Z" fill="#a5d8cd" stroke="#a5d8cd" stroke-width="1.51"/><path d="M550,213L449,207L454,313Z" fill="#afe0b8" stroke="#afe0b8" stroke-width="1.51"/><path d="M633,78L579,127L683,178Z" fill="#b0e0c3" stroke="#b0e0c3" stroke-width="1.51"/><path d="M668,901L741,1009L810,875Z" fill="#5094b6" stroke="#5094b6" stroke-width="1.51"/><path d="M651,1032L741,1009L668,901Z" fill="#558ead" stroke="#558ead" stroke-width="1.51"/><path d="M1002,935L1080,939L1095,842Z" fill="#2a83ba" stroke="#2a83ba" stroke-width="1.51"/><path d="M1107,980L1080,939L1002,935Z" fill="#2a7cb3" stroke="#2a7cb3" stroke-width="1.51"/><path d="M399,662L397,778L496,690Z" fill="#7fbbbf" stroke="#7fbbbf" stroke-width="1.51"/><path d="M596,1044L651,1032L668,901Z" fill="#5b8eaa" stroke="#5b8eaa" stroke-width="1.51"/><path d="M326,638L397,778L399,662Z" fill="#86bfc2" stroke="#86bfc2" stroke-width="1.51"/><path d="M1310,359L1238,302L1173,402Z" fill="#6babbb" stroke="#6babbb" stroke-width="1.51"/><path d="M1092,217L1056,92L1011,110Z" fill="#91c5c8" stroke="#91c5c8" stroke-width="1.51"/><path d="M1137,825L1258,736L1159,676Z" fill="#2c8cbe" stroke="#2c8cbe" stroke-width="1.51"/><path d="M1253,805L1258,736L1137,825Z" fill="#2684bb" stroke="#2684bb" stroke-width="1.51"/><path d="M1238,302L1159,187L1133,323Z" fill="#7ab5bc" stroke="#7ab5bc" stroke-width="1.51"/><path d="M1258,736L1298,626L1159,676Z" fill="#3290c1" stroke="#3290c1" stroke-width="1.51"/><path d="M1253,476L1310,359L1173,402Z" fill="#5fa7bd" stroke="#5fa7bd" stroke-width="1.51"/><path d="M579,127L449,207L550,213Z" fill="#b3e2bc" stroke="#b3e2bc" stroke-width="1.51"/><path d="M447,71L400,160L449,207Z" fill="#bfe6bf" stroke="#bfe6bf" stroke-width="1.51"/><path d="M738,92L633,78L683,178Z" fill="#abdec6" stroke="#abdec6" stroke-width="1.51"/><path d="M657,-1L633,78L738,92Z" fill="#b0e0ca" stroke="#b0e0ca" stroke-width="1.51"/><path d="M909,1039L962,1012L842,917Z" fill="#3a83b1" stroke="#3a83b1" stroke-width="1.51"/><path d="M270,600L326,638L403,488Z" fill="#94cfc9" stroke="#94cfc9" stroke-width="1.51"/><path d="M1011,110L1002,37L908,108Z" fill="#99cdd0" stroke="#99cdd0" stroke-width="1.51"/><path d="M1141,124L1056,92L1092,217Z" fill="#8ec1c6" stroke="#8ec1c6" stroke-width="1.51"/><path d="M741,1009L909,1039L842,917Z" fill="#4486b0" stroke="#4486b0" stroke-width="1.51"/><path d="M1378,682L1381,600L1298,626Z" fill="#338cbf" stroke="#338cbf" stroke-width="1.51"/><path d="M1255,898L1253,805L1137,825Z" fill="#217db7" stroke="#217db7" stroke-width="1.51"/><path d="M874,1133L938,1095L909,1039Z" fill="#3879a8" stroke="#3879a8" stroke-width="1.51"/><path d="M596,1044L668,901L548,877Z" fill="#6097b0" stroke="#6097b0" stroke-width="1.51"/><path d="M895,-34L786,14L908,108Z" fill="#a4d6d2" stroke="#a4d6d2" stroke-width="1.51"/><path d="M397,778L448,910L505,785Z" fill="#77acb8" stroke="#77acb8" stroke-width="1.51"/><path d="M449,985L448,910L383,939Z" fill="#739cae" stroke="#739cae" stroke-width="1.51"/><path d="M1271,93L1141,124L1159,187Z" fill="#8ab9c3" stroke="#8ab9c3" stroke-width="1.51"/><path d="M1159,187L1141,124L1092,217Z" fill="#89bcc3" stroke="#89bcc3" stroke-width="1.51"/><path d="M1238,302L1263,204L1159,187Z" fill="#7eb2bc" stroke="#7eb2bc" stroke-width="1.51"/><path d="M1381,463L1310,359L1253,476Z" fill="#59a0bb" stroke="#59a0bb" stroke-width="1.51"/><path d="M1080,939L1184,964L1137,825Z" fill="#237cb6" stroke="#237cb6" stroke-width="1.51"/><path d="M1047,1069L1107,980L1002,935Z" fill="#2a77ad" stroke="#2a77ad" stroke-width="1.51"/><path d="M1047,1069L1002,935L962,1012Z" fill="#2e7aae" stroke="#2e7aae" stroke-width="1.51"/><path d="M1036,18L1002,37L1056,92Z" fill="#98c9d0" stroke="#98c9d0" stroke-width="1.51"/><path d="M1056,92L1002,37L1011,110Z" fill="#96cace" stroke="#96cace" stroke-width="1.51"/><path d="M264,484L270,600L403,488Z" fill="#9bd4c7" stroke="#9bd4c7" stroke-width="1.51"/><path d="M449,207L327,297L454,313Z" fill="#b2e1b9" stroke="#b2e1b9" stroke-width="1.51"/><path d="M326,638L238,700L397,778Z" fill="#8abfc4" stroke="#8abfc4" stroke-width="1.51"/><path d="M264,484L403,488L385,367Z" fill="#9fd9c2" stroke="#9fd9c2" stroke-width="1.51"/><path d="M449,985L596,1044L548,877Z" fill="#6895aa" stroke="#6895aa" stroke-width="1.51"/><path d="M651,1032L630,1076L741,1009Z" fill="#5486a3" stroke="#5486a3" stroke-width="1.51"/><path d="M240,412L264,484L385,367Z" fill="#a7dcc2" stroke="#a7dcc2" stroke-width="1.51"/><path d="M1361,197L1263,204L1238,302Z" fill="#7badba" stroke="#7badba" stroke-width="1.51"/><path d="M786,14L657,-1L738,92Z" fill="#addecd" stroke="#addecd" stroke-width="1.51"/><path d="M471,37L447,71L579,127Z" fill="#bee6c2" stroke="#bee6c2" stroke-width="1.51"/><path d="M449,207L400,160L327,297Z" fill="#bae4bc" stroke="#bae4bc" stroke-width="1.51"/><path d="M709,-119L657,-1L786,14Z" fill="#b3e1d1" stroke="#b3e1d1" stroke-width="1.51"/><path d="M447,71L449,207L579,127Z" fill="#bbe5be" stroke="#bbe5be" stroke-width="1.51"/><path d="M1002,37L895,-34L908,108Z" fill="#9fd2d4" stroke="#9fd2d4" stroke-width="1.51"/><path d="M1177,28L1036,18L1056,92Z" fill="#95c4ce" stroke="#95c4ce" stroke-width="1.51"/><path d="M1177,28L1056,92L1141,124Z" fill="#91c0ca" stroke="#91c0ca" stroke-width="1.51"/><path d="M1107,980L1184,964L1080,939Z" fill="#2475af" stroke="#2475af" stroke-width="1.51"/><path d="M1136,1069L1184,964L1107,980Z" fill="#216ea8" stroke="#216ea8" stroke-width="1.51"/><path d="M1184,964L1211,940L1137,825Z" fill="#1e78b4" stroke="#1e78b4" stroke-width="1.51"/><path d="M1298,626L1381,600L1253,476Z" fill="#4097c2" stroke="#4097c2" stroke-width="1.51"/><path d="M1378,682L1298,626L1258,736Z" fill="#2e8abe" stroke="#2e8abe" stroke-width="1.51"/><path d="M1378,682L1258,736L1362,780Z" fill="#2582b9" stroke="#2582b9" stroke-width="1.51"/><path d="M1211,940L1255,898L1137,825Z" fill="#1e7ab5" stroke="#1e7ab5" stroke-width="1.51"/><path d="M1381,600L1381,463L1253,476Z" fill="#4a98be" stroke="#4a98be" stroke-width="1.51"/><path d="M1310,359L1361,197L1238,302Z" fill="#74a9b6" stroke="#74a9b6" stroke-width="1.51"/><path d="M602,1139L630,1076L596,1044Z" fill="#5b86a0" stroke="#5b86a0" stroke-width="1.51"/><path d="M596,1044L630,1076L651,1032Z" fill="#5986a1" stroke="#5986a1" stroke-width="1.51"/><path d="M909,1039L938,1095L962,1012Z" fill="#3479aa" stroke="#3479aa" stroke-width="1.51"/><path d="M874,1133L909,1039L800,1143Z" fill="#3e7ba7" stroke="#3e7ba7" stroke-width="1.51"/><path d="M1041,-68L895,-34L1002,37Z" fill="#a0d0d7" stroke="#a0d0d7" stroke-width="1.51"/><path d="M383,939L448,910L397,778Z" fill="#77a6b6" stroke="#77a6b6" stroke-width="1.51"/><path d="M448,910L449,985L548,877Z" fill="#6f9daf" stroke="#6f9daf" stroke-width="1.51"/><path d="M938,1095L1047,1069L962,1012Z" fill="#2f74a8" stroke="#2f74a8" stroke-width="1.51"/><path d="M1362,780L1258,736L1253,805Z" fill="#2380b8" stroke="#2380b8" stroke-width="1.51"/><path d="M200,672L238,700L270,600Z" fill="#93c7ca" stroke="#93c7ca" stroke-width="1.51"/><path d="M327,297L240,412L385,367Z" fill="#aedfbe" stroke="#aedfbe" stroke-width="1.51"/><path d="M230,286L240,412L327,297Z" fill="#b6e2be" stroke="#b6e2be" stroke-width="1.51"/><path d="M237,861L383,939L397,778Z" fill="#7eaaba" stroke="#7eaaba" stroke-width="1.51"/><path d="M471,37L579,127L633,78Z" fill="#b9e4c4" stroke="#b9e4c4" stroke-width="1.51"/><path d="M226,230L230,286L327,297Z" fill="#bee6bf" stroke="#bee6bf" stroke-width="1.51"/><path d="M1394,872L1362,780L1253,805Z" fill="#1c77b4" stroke="#1c77b4" stroke-width="1.51"/><path d="M270,600L238,700L326,638Z" fill="#92c8c9" stroke="#92c8c9" stroke-width="1.51"/><path d="M187,512L270,600L264,484Z" fill="#9ed5ca" stroke="#9ed5ca" stroke-width="1.51"/><path d="M938,1095L874,1133L1047,1069Z" fill="#3277a9" stroke="#3277a9" stroke-width="1.51"/><path d="M800,1143L909,1039L741,1009Z" fill="#437ea6" stroke="#437ea6" stroke-width="1.51"/><path d="M586,-43L471,37L633,78Z" fill="#bce5c8" stroke="#bce5c8" stroke-width="1.51"/><path d="M630,1076L800,1143L741,1009Z" fill="#4d83a3" stroke="#4d83a3" stroke-width="1.51"/><path d="M1381,463L1409,385L1310,359Z" fill="#5e9db8" stroke="#5e9db8" stroke-width="1.51"/><path d="M1449,500L1409,385L1381,463Z" fill="#5397b8" stroke="#5397b8" stroke-width="1.51"/><path d="M1449,500L1381,463L1381,600Z" fill="#4792bb" stroke="#4792bb" stroke-width="1.51"/><path d="M238,700L242,773L397,778Z" fill="#88bac1" stroke="#88bac1" stroke-width="1.51"/><path d="M1047,1069L1136,1069L1107,980Z" fill="#266da5" stroke="#266da5" stroke-width="1.51"/><path d="M1184,964L1296,1018L1211,940Z" fill="#1a6ca9" stroke="#1a6ca9" stroke-width="1.51"/><path d="M1381,1006L1394,872L1255,898Z" fill="#1069ab" stroke="#1069ab" stroke-width="1.51"/><path d="M1255,898L1394,872L1253,805Z" fill="#1a75b2" stroke="#1a75b2" stroke-width="1.51"/><path d="M1308,1133L1136,1069L1047,1069Z" fill="#1f66a0" stroke="#1f66a0" stroke-width="1.51"/><path d="M895,-34L778,-130L786,14Z" fill="#addbd6" stroke="#addbd6" stroke-width="1.51"/><path d="M657,-1L586,-43L633,78Z" fill="#b7e3cb" stroke="#b7e3cb" stroke-width="1.51"/><path d="M978,-119L897,-81L895,-34Z" fill="#a7d6db" stroke="#a7d6db" stroke-width="1.51"/><path d="M709,-119L586,-43L657,-1Z" fill="#bae4d1" stroke="#bae4d1" stroke-width="1.51"/><path d="M1036,18L1041,-68L1002,37Z" fill="#9ccbd4" stroke="#9ccbd4" stroke-width="1.51"/><path d="M1271,93L1177,28L1141,124Z" fill="#8dbac6" stroke="#8dbac6" stroke-width="1.51"/><path d="M1271,93L1159,187L1263,204Z" fill="#86b5c0" stroke="#86b5c0" stroke-width="1.51"/><path d="M169,427L187,512L264,484Z" fill="#a6dac9" stroke="#a6dac9" stroke-width="1.51"/><path d="M238,700L173,787L242,773Z" fill="#8cbbc5" stroke="#8cbbc5" stroke-width="1.51"/><path d="M159,608L200,672L270,600Z" fill="#97cccd" stroke="#97cccd" stroke-width="1.51"/><path d="M1484,564L1381,600L1509,671Z" fill="#3386b9" stroke="#3386b9" stroke-width="1.51"/><path d="M1484,564L1449,500L1381,600Z" fill="#3f8dba" stroke="#3f8dba" stroke-width="1.51"/><path d="M1361,197L1271,93L1263,204Z" fill="#84aebd" stroke="#84aebd" stroke-width="1.51"/><path d="M342,93L400,160L447,71Z" fill="#c5e8c3" stroke="#c5e8c3" stroke-width="1.51"/><path d="M226,230L327,297L400,160Z" fill="#bfe6be" stroke="#bfe6be" stroke-width="1.51"/><path d="M240,412L169,427L264,484Z" fill="#a9dcc6" stroke="#a9dcc6" stroke-width="1.51"/><path d="M630,1076L602,1139L800,1143Z" fill="#5384a1" stroke="#5384a1" stroke-width="1.51"/><path d="M487,1138L602,1139L596,1044Z" fill="#61889e" stroke="#61889e" stroke-width="1.51"/><path d="M487,1138L596,1044L449,985Z" fill="#668a9d" stroke="#668a9d" stroke-width="1.51"/><path d="M1417,286L1310,359L1409,385Z" fill="#689fb5" stroke="#689fb5" stroke-width="1.51"/><path d="M1417,286L1361,197L1310,359Z" fill="#72a4b4" stroke="#72a4b4" stroke-width="1.51"/><path d="M1171,-75L1041,-68L1036,18Z" fill="#9cc7d3" stroke="#9cc7d3" stroke-width="1.51"/><path d="M978,-119L1041,-68L1171,-75Z" fill="#a0cbd8" stroke="#a0cbd8" stroke-width="1.51"/><path d="M326,2L447,71L471,37Z" fill="#c8eac8" stroke="#c8eac8" stroke-width="1.51"/><path d="M326,2L342,93L447,71Z" fill="#caebc8" stroke="#caebc8" stroke-width="1.51"/><path d="M1482,263L1417,286L1409,385Z" fill="#6c9caf" stroke="#6c9caf" stroke-width="1.51"/><path d="M187,512L159,608L270,600Z" fill="#9cd2ce" stroke="#9cd2ce" stroke-width="1.51"/><path d="M230,286L169,427L240,412Z" fill="#b3e1c4" stroke="#b3e1c4" stroke-width="1.51"/><path d="M383,939L324,975L449,985Z" fill="#759aad" stroke="#759aad" stroke-width="1.51"/><path d="M237,861L324,975L383,939Z" fill="#7da2b5" stroke="#7da2b5" stroke-width="1.51"/><path d="M237,861L397,778L242,773Z" fill="#85b3bf" stroke="#85b3bf" stroke-width="1.51"/><path d="M173,787L237,861L242,773Z" fill="#89b4c2" stroke="#89b4c2" stroke-width="1.51"/><path d="M72,515L159,608L187,512Z" fill="#a2d5d0" stroke="#a2d5d0" stroke-width="1.51"/><path d="M173,787L238,700L200,672Z" fill="#90bfc8" stroke="#90bfc8" stroke-width="1.51"/><path d="M778,-130L709,-119L786,14Z" fill="#b3e0d6" stroke="#b3e0d6" stroke-width="1.51"/><path d="M326,2L251,135L342,93Z" fill="#ceecc8" stroke="#ceecc8" stroke-width="1.51"/><path d="M778,-130L895,-34L897,-81Z" fill="#addada" stroke="#addada" stroke-width="1.51"/><path d="M230,286L133,296L169,427Z" fill="#b9e4c3" stroke="#b9e4c3" stroke-width="1.51"/><path d="M251,135L226,230L400,160Z" fill="#c7e9c2" stroke="#c7e9c2" stroke-width="1.51"/><path d="M978,-119L778,-130L897,-81Z" fill="#add9dd" stroke="#add9dd" stroke-width="1.51"/><path d="M1489,802L1509,671L1378,682Z" fill="#2478b2" stroke="#2478b2" stroke-width="1.51"/><path d="M1296,1018L1255,898L1211,940Z" fill="#186dab" stroke="#186dab" stroke-width="1.51"/><path d="M1509,671L1381,600L1378,682Z" fill="#2e84ba" stroke="#2e84ba" stroke-width="1.51"/><path d="M1449,500L1517,439L1409,385Z" fill="#5393b3" stroke="#5393b3" stroke-width="1.51"/><path d="M1041,-68L978,-119L895,-34Z" fill="#a5d2db" stroke="#a5d2db" stroke-width="1.51"/><path d="M1171,-75L1036,18L1177,28Z" fill="#96c2d0" stroke="#96c2d0" stroke-width="1.51"/><path d="M1136,1069L1296,1018L1184,964Z" fill="#1c68a3" stroke="#1c68a3" stroke-width="1.51"/><path d="M602,1139L487,1138L800,1143Z" fill="#5986a0" stroke="#5986a0" stroke-width="1.51"/><path d="M375,1100L487,1138L449,985Z" fill="#6c8b9e" stroke="#6c8b9e" stroke-width="1.51"/><path d="M102,805L173,787L64,692Z" fill="#90bbc9" stroke="#90bbc9" stroke-width="1.51"/><path d="M277,1017L375,1100L324,975Z" fill="#7692a6" stroke="#7692a6" stroke-width="1.51"/><path d="M342,93L251,135L400,160Z" fill="#c8eac4" stroke="#c8eac4" stroke-width="1.51"/><path d="M226,230L182,228L230,286Z" fill="#c3e8c2" stroke="#c3e8c2" stroke-width="1.51"/><path d="M480,-99L471,37L586,-43Z" fill="#c5e9ca" stroke="#c5e9ca" stroke-width="1.51"/><path d="M1259,-40L1171,-75L1177,28Z" fill="#94bcce" stroke="#94bcce" stroke-width="1.51"/><path d="M1361,197L1385,133L1271,93Z" fill="#85acbd" stroke="#85acbd" stroke-width="1.51"/><path d="M1488,163L1385,133L1361,197Z" fill="#7fa5b8" stroke="#7fa5b8" stroke-width="1.51"/><path d="M1482,263L1361,197L1417,286Z" fill="#75a0b2" stroke="#75a0b2" stroke-width="1.51"/><path d="M709,-119L567,-118L586,-43Z" fill="#c0e6d2" stroke="#c0e6d2" stroke-width="1.51"/><path d="M778,-130L567,-118L709,-119Z" fill="#bce5d6" stroke="#bce5d6" stroke-width="1.51"/><path d="M251,135L182,228L226,230Z" fill="#c8eac5" stroke="#c8eac5" stroke-width="1.51"/><path d="M1564,481L1517,439L1449,500Z" fill="#4d8caf" stroke="#4d8caf" stroke-width="1.51"/><path d="M1489,802L1378,682L1362,780Z" fill="#1e78b4" stroke="#1e78b4" stroke-width="1.51"/><path d="M1259,-40L1177,28L1271,93Z" fill="#8fb8c9" stroke="#8fb8c9" stroke-width="1.51"/><path d="M1534,563L1449,500L1484,564Z" fill="#4189b4" stroke="#4189b4" stroke-width="1.51"/><path d="M277,1017L324,975L237,861Z" fill="#7e9fb2" stroke="#7e9fb2" stroke-width="1.51"/><path d="M324,975L375,1100L449,985Z" fill="#7292a5" stroke="#7292a5" stroke-width="1.51"/><path d="M173,787L189,885L237,861Z" fill="#88afc0" stroke="#88afc0" stroke-width="1.51"/><path d="M567,-118L480,-99L586,-43Z" fill="#c6e9cf" stroke="#c6e9cf" stroke-width="1.51"/><path d="M1509,671L1534,563L1484,564Z" fill="#3483b5" stroke="#3483b5" stroke-width="1.51"/><path d="M1557,391L1482,263L1409,385Z" fill="#6496ac" stroke="#6496ac" stroke-width="1.51"/><path d="M189,885L277,1017L237,861Z" fill="#82a4b9" stroke="#82a4b9" stroke-width="1.51"/><path d="M182,228L133,296L230,286Z" fill="#c1e7c2" stroke="#c1e7c2" stroke-width="1.51"/><path d="M169,427L72,515L187,512Z" fill="#a8dacd" stroke="#a8dacd" stroke-width="1.51"/><path d="M159,608L64,692L200,672Z" fill="#97c9cf" stroke="#97c9cf" stroke-width="1.51"/><path d="M370,-76L326,2L471,37Z" fill="#cdeccc" stroke="#cdeccc" stroke-width="1.51"/><path d="M103,158L133,296L182,228Z" fill="#c8eac7" stroke="#c8eac7" stroke-width="1.51"/><path d="M103,158L88,322L133,296Z" fill="#c6e9c6" stroke="#c6e9c6" stroke-width="1.51"/><path d="M1394,872L1489,802L1362,780Z" fill="#1770af" stroke="#1770af" stroke-width="1.51"/><path d="M1640,577L1564,481L1534,563Z" fill="#4080ab" stroke="#4080ab" stroke-width="1.51"/><path d="M1443,904L1489,802L1394,872Z" fill="#1169aa" stroke="#1169aa" stroke-width="1.51"/><path d="M1269,-128L1259,-40L1390,-108Z" fill="#95b5ce" stroke="#95b5ce" stroke-width="1.51"/><path d="M1407,-24L1259,-40L1271,93Z" fill="#8db2c7" stroke="#8db2c7" stroke-width="1.51"/><path d="M1381,1006L1443,904L1394,872Z" fill="#0964a8" stroke="#0964a8" stroke-width="1.51"/><path d="M1308,1133L1381,1006L1296,1018Z" fill="#12599a" stroke="#12599a" stroke-width="1.51"/><path d="M1296,1018L1381,1006L1255,898Z" fill="#1465a5" stroke="#1465a5" stroke-width="1.51"/><path d="M28,362L72,515L169,427Z" fill="#b0e0cc" stroke="#b0e0cc" stroke-width="1.51"/><path d="M173,787L102,805L189,885Z" fill="#8bb2c3" stroke="#8bb2c3" stroke-width="1.51"/><path d="M1517,439L1557,391L1409,385Z" fill="#5a91ae" stroke="#5a91ae" stroke-width="1.51"/><path d="M1534,563L1564,481L1449,500Z" fill="#4588b1" stroke="#4588b1" stroke-width="1.51"/><path d="M1583,710L1534,563L1509,671Z" fill="#2d7aae" stroke="#2d7aae" stroke-width="1.51"/><path d="M1564,481L1557,391L1517,439Z" fill="#528baa" stroke="#528baa" stroke-width="1.51"/><path d="M480,-99L370,-76L471,37Z" fill="#ccebcd" stroke="#ccebcd" stroke-width="1.51"/><path d="M103,158L182,228L251,135Z" fill="#cdecc7" stroke="#cdecc7" stroke-width="1.51"/><path d="M307,-110L370,-76L480,-99Z" fill="#d4eed2" stroke="#d4eed2" stroke-width="1.51"/><path d="M187,8L251,135L326,2Z" fill="#d3eecc" stroke="#d3eecc" stroke-width="1.51"/><path d="M133,296L88,322L169,427Z" fill="#bae4c6" stroke="#bae4c6" stroke-width="1.51"/><path d="M5,613L61,630L72,515Z" fill="#a1d4d6" stroke="#a1d4d6" stroke-width="1.51"/><path d="M72,515L61,630L159,608Z" fill="#9fd3d3" stroke="#9fd3d3" stroke-width="1.51"/><path d="M189,885L188,1006L277,1017Z" fill="#809eb3" stroke="#809eb3" stroke-width="1.51"/><path d="M64,692L173,787L200,672Z" fill="#92c1cb" stroke="#92c1cb" stroke-width="1.51"/><path d="M61,630L64,692L159,608Z" fill="#9accd2" stroke="#9accd2" stroke-width="1.51"/><path d="M1482,263L1488,163L1361,197Z" fill="#799fb3" stroke="#799fb3" stroke-width="1.51"/><path d="M1590,174L1488,163L1482,263Z" fill="#7799ab" stroke="#7799ab" stroke-width="1.51"/><path d="M1136,1069L1308,1133L1296,1018Z" fill="#195f9c" stroke="#195f9c" stroke-width="1.51"/><path d="M1576,802L1489,802L1551,911Z" fill="#1463a3" stroke="#1463a3" stroke-width="1.51"/><path d="M874,1133L1308,1133L1047,1069Z" fill="#286da4" stroke="#286da4" stroke-width="1.51"/><path d="M800,1143L1308,1133L874,1133Z" fill="#2f73a7" stroke="#2f73a7" stroke-width="1.51"/><path d="M67,961L188,1006L189,885Z" fill="#84a1b8" stroke="#84a1b8" stroke-width="1.51"/><path d="M277,1017L288,1124L375,1100Z" fill="#768fa3" stroke="#768fa3" stroke-width="1.51"/><path d="M1489,802L1583,710L1509,671Z" fill="#2371aa" stroke="#2371aa" stroke-width="1.51"/><path d="M1670,369L1592,272L1557,391Z" fill="#618aa0" stroke="#618aa0" stroke-width="1.51"/><path d="M1576,802L1583,710L1489,802Z" fill="#1c69a6" stroke="#1c69a6" stroke-width="1.51"/><path d="M1489,802L1443,904L1551,911Z" fill="#0f63a5" stroke="#0f63a5" stroke-width="1.51"/><path d="M375,1100L288,1124L487,1138Z" fill="#718da0" stroke="#718da0" stroke-width="1.51"/><path d="M188,1006L288,1124L277,1017Z" fill="#7a91a6" stroke="#7a91a6" stroke-width="1.51"/><path d="M307,-110L263,-38L326,2Z" fill="#d7f0d2" stroke="#d7f0d2" stroke-width="1.51"/><path d="M1259,-40L1269,-128L1171,-75Z" fill="#97bbd0" stroke="#97bbd0" stroke-width="1.51"/><path d="M1171,-75L1269,-128L978,-119Z" fill="#9dc4d5" stroke="#9dc4d5" stroke-width="1.51"/><path d="M978,-119L1269,-128L778,-130Z" fill="#a6d0dd" stroke="#a6d0dd" stroke-width="1.51"/><path d="M1407,-24L1271,93L1385,133Z" fill="#89acc2" stroke="#89acc2" stroke-width="1.51"/><path d="M187,8L164,62L251,135Z" fill="#d5eece" stroke="#d5eece" stroke-width="1.51"/><path d="M88,322L28,362L169,427Z" fill="#b8e3c9" stroke="#b8e3c9" stroke-width="1.51"/><path d="M61,630L5,613L64,692Z" fill="#9dcdd4" stroke="#9dcdd4" stroke-width="1.51"/><path d="M-3,339L28,362L88,322Z" fill="#bfe6ca" stroke="#bfe6ca" stroke-width="1.51"/><path d="M164,62L103,158L251,135Z" fill="#d2eecb" stroke="#d2eecb" stroke-width="1.51"/><path d="M1551,911L1443,904L1498,1037Z" fill="#0a599b" stroke="#0a599b" stroke-width="1.51"/><path d="M-61,541L5,613L72,515Z" fill="#a7d7d7" stroke="#a7d7d7" stroke-width="1.51"/><path d="M64,692L-38,821L102,805Z" fill="#92bbcc" stroke="#92bbcc" stroke-width="1.51"/><path d="M102,805L67,961L189,885Z" fill="#89acc2" stroke="#89acc2" stroke-width="1.51"/><path d="M1488,163L1495,88L1385,133Z" fill="#81a2b6" stroke="#81a2b6" stroke-width="1.51"/><path d="M1563,74L1495,88L1488,163Z" fill="#809cb2" stroke="#809cb2" stroke-width="1.51"/><path d="M1465,-2L1407,-24L1385,133Z" fill="#88a8c0" stroke="#88a8c0" stroke-width="1.51"/><path d="M164,62L87,126L103,158Z" fill="#d5efce" stroke="#d5efce" stroke-width="1.51"/><path d="M263,-38L187,8L326,2Z" fill="#d7efd1" stroke="#d7efd1" stroke-width="1.51"/><path d="M1650,464L1557,391L1564,481Z" fill="#5086a6" stroke="#5086a6" stroke-width="1.51"/><path d="M1557,391L1592,272L1482,263Z" fill="#6991a5" stroke="#6991a5" stroke-width="1.51"/><path d="M102,-114L101,-6L187,8Z" fill="#dff3d9" stroke="#dff3d9" stroke-width="1.51"/><path d="M370,-76L307,-110L326,2Z" fill="#d5efd1" stroke="#d5efd1" stroke-width="1.51"/><path d="M567,-118L307,-110L480,-99Z" fill="#d0edd1" stroke="#d0edd1" stroke-width="1.51"/><path d="M156,-135L307,-110L567,-118Z" fill="#d9f0d5" stroke="#d9f0d5" stroke-width="1.51"/><path d="M1583,710L1640,577L1534,563Z" fill="#3179ad" stroke="#3179ad" stroke-width="1.51"/><path d="M1674,727L1640,577L1583,710Z" fill="#2a6fa5" stroke="#2a6fa5" stroke-width="1.51"/><path d="M1576,802L1674,727L1583,710Z" fill="#1f67a1" stroke="#1f67a1" stroke-width="1.51"/><path d="M1498,1037L1443,904L1381,1006Z" fill="#0a5a9c" stroke="#0a5a9c" stroke-width="1.51"/><path d="M101,-6L87,126L164,62Z" fill="#d9f0d2" stroke="#d9f0d2" stroke-width="1.51"/><path d="M-3,339L-4,370L28,362Z" fill="#bee5cc" stroke="#bee5cc" stroke-width="1.51"/><path d="M28,362L-4,370L72,515Z" fill="#b5e2ce" stroke="#b5e2ce" stroke-width="1.51"/><path d="M-3,339L88,322L-34,191Z" fill="#c7e9ca" stroke="#c7e9ca" stroke-width="1.51"/><path d="M1640,577L1650,464L1564,481Z" fill="#457fa6" stroke="#457fa6" stroke-width="1.51"/><path d="M-34,191L88,322L103,158Z" fill="#cdeccb" stroke="#cdeccb" stroke-width="1.51"/><path d="M1308,1133L1417,1124L1381,1006Z" fill="#0d5698" stroke="#0d5698" stroke-width="1.51"/><path d="M1563,74L1465,-2L1495,88Z" fill="#839eb6" stroke="#839eb6" stroke-width="1.51"/><path d="M1495,88L1465,-2L1385,133Z" fill="#85a3bb" stroke="#85a3bb" stroke-width="1.51"/><path d="M1407,-24L1390,-108L1259,-40Z" fill="#91b0ca" stroke="#91b0ca" stroke-width="1.51"/><path d="M1452,1104L1498,1037L1381,1006Z" fill="#095093" stroke="#095093" stroke-width="1.51"/><path d="M1417,1124L1452,1104L1381,1006Z" fill="#095295" stroke="#095295" stroke-width="1.51"/><path d="M1592,272L1590,174L1482,263Z" fill="#7293a7" stroke="#7293a7" stroke-width="1.51"/><path d="M1708,224L1590,174L1592,272Z" fill="#718da0" stroke="#718da0" stroke-width="1.51"/><path d="M5,613L-34,672L64,692Z" fill="#9dcbd5" stroke="#9dcbd5" stroke-width="1.51"/><path d="M-61,541L-34,672L5,613Z" fill="#a3d3da" stroke="#a3d3da" stroke-width="1.51"/><path d="M-61,541L72,515L-4,370Z" fill="#b0ded3" stroke="#b0ded3" stroke-width="1.51"/><path d="M188,1006L136,1078L288,1124Z" fill="#7c91a7" stroke="#7c91a7" stroke-width="1.51"/><path d="M23,897L67,961L102,805Z" fill="#8bacc4" stroke="#8bacc4" stroke-width="1.51"/><path d="M1450,-139L1407,-24L1465,-2Z" fill="#8da8c4" stroke="#8da8c4" stroke-width="1.51"/><path d="M1450,-139L1390,-108L1407,-24Z" fill="#91abc9" stroke="#91abc9" stroke-width="1.51"/><path d="M67,961L136,1078L188,1006Z" fill="#8198b0" stroke="#8198b0" stroke-width="1.51"/><path d="M67,961L26,1123L136,1078Z" fill="#8193ac" stroke="#8193ac" stroke-width="1.51"/><path d="M-38,821L23,897L102,805Z" fill="#8fb3c8" stroke="#8fb3c8" stroke-width="1.51"/><path d="M1650,464L1670,369L1557,391Z" fill="#5685a1" stroke="#5685a1" stroke-width="1.51"/><path d="M1674,727L1670,369L1650,464Z" fill="#437da6" stroke="#437da6" stroke-width="1.51"/><path d="M-130,537L-61,541L-157,402Z" fill="#b4dfd8" stroke="#b4dfd8" stroke-width="1.51"/><path d="M1590,174L1563,74L1488,163Z" fill="#7d99ad" stroke="#7d99ad" stroke-width="1.51"/><path d="M1668,79L1563,74L1590,174Z" fill="#7c93a9" stroke="#7c93a9" stroke-width="1.51"/><path d="M1640,577L1674,727L1650,464Z" fill="#3578a9" stroke="#3578a9" stroke-width="1.51"/><path d="M1679,806L1674,727L1576,802Z" fill="#1b629e" stroke="#1b629e" stroke-width="1.51"/><path d="M1679,806L1576,802L1660,877Z" fill="#155c9b" stroke="#155c9b" stroke-width="1.51"/><path d="M1498,1037L1584,983L1551,911Z" fill="#0a5193" stroke="#0a5193" stroke-width="1.51"/><path d="M1542,1094L1584,983L1498,1037Z" fill="#09498b" stroke="#09498b" stroke-width="1.51"/><path d="M87,126L-34,191L103,158Z" fill="#d4efcf" stroke="#d4efcf" stroke-width="1.51"/><path d="M187,8L101,-6L164,62Z" fill="#daf1d3" stroke="#daf1d3" stroke-width="1.51"/><path d="M156,-135L187,8L263,-38Z" fill="#ddf2d6" stroke="#ddf2d6" stroke-width="1.51"/><path d="M23,897L-60,909L67,961Z" fill="#8ca8c3" stroke="#8ca8c3" stroke-width="1.51"/><path d="M-34,672L-38,821L64,692Z" fill="#97c2d1" stroke="#97c2d1" stroke-width="1.51"/><path d="M-108,703L-38,821L-34,672Z" fill="#9ac3d3" stroke="#9ac3d3" stroke-width="1.51"/><path d="M1674,727L1706,276L1670,369Z" fill="#4c82a3" stroke="#4c82a3" stroke-width="1.51"/><path d="M1660,877L1576,802L1551,911Z" fill="#115b9c" stroke="#115b9c" stroke-width="1.51"/><path d="M1638,962L1660,877L1551,911Z" fill="#0a5395" stroke="#0a5395" stroke-width="1.51"/><path d="M-76,101L-34,191L87,126Z" fill="#d9f0d2" stroke="#d9f0d2" stroke-width="1.51"/><path d="M-157,402L-61,541L-4,370Z" fill="#b8e3d4" stroke="#b8e3d4" stroke-width="1.51"/><path d="M1584,983L1638,962L1551,911Z" fill="#095093" stroke="#095093" stroke-width="1.51"/><path d="M1452,1104L1542,1094L1498,1037Z" fill="#094b8d" stroke="#094b8d" stroke-width="1.51"/><path d="M1417,1124L1542,1094L1452,1104Z" fill="#094d90" stroke="#094d90" stroke-width="1.51"/><path d="M1645,1117L1638,962L1584,983Z" fill="#094586" stroke="#094586" stroke-width="1.51"/><path d="M1660,877L1645,1117L1679,806Z" fill="#095092" stroke="#095092" stroke-width="1.51"/><path d="M1390,-108L1450,-139L1269,-128Z" fill="#95b0ce" stroke="#95b0ce" stroke-width="1.51"/><path d="M1269,-128L1450,-139L778,-130Z" fill="#9ec2d6" stroke="#9ec2d6" stroke-width="1.51"/><path d="M1588,-75L1450,-139L1465,-2Z" fill="#8ca2bf" stroke="#8ca2bf" stroke-width="1.51"/><path d="M1670,369L1706,276L1592,272Z" fill="#668a9d" stroke="#668a9d" stroke-width="1.51"/><path d="M1563,74L1612,-16L1465,-2Z" fill="#849bb5" stroke="#849bb5" stroke-width="1.51"/><path d="M1679,806L1706,276L1674,727Z" fill="#3277a9" stroke="#3277a9" stroke-width="1.51"/><path d="M-171,622L-108,703L-34,672Z" fill="#a2cdd9" stroke="#a2cdd9" stroke-width="1.51"/><path d="M-171,622L-34,672L-61,541Z" fill="#a6d3dd" stroke="#a6d3dd" stroke-width="1.51"/><path d="M307,-110L156,-135L263,-38Z" fill="#def2d7" stroke="#def2d7" stroke-width="1.51"/><path d="M-57,32L-76,101L87,126Z" fill="#ddf2d7" stroke="#ddf2d7" stroke-width="1.51"/><path d="M778,-130L156,-135L567,-118Z" fill="#cdebd0" stroke="#cdebd0" stroke-width="1.51"/><path d="M-121,-144L156,-135L778,-130Z" fill="#e0f3d9" stroke="#e0f3d9" stroke-width="1.51"/><path d="M-157,402L-4,370L-3,339Z" fill="#c0e6d0" stroke="#c0e6d0" stroke-width="1.51"/><path d="M1706,276L1708,224L1592,272Z" fill="#6d8c9e" stroke="#6d8c9e" stroke-width="1.51"/><path d="M-38,821L-60,909L23,897Z" fill="#90b0c9" stroke="#90b0c9" stroke-width="1.51"/><path d="M-147,776L-60,909L-38,821Z" fill="#95b5ce" stroke="#95b5ce" stroke-width="1.51"/><path d="M-34,191L-98,264L-3,339Z" fill="#cdebce" stroke="#cdebce" stroke-width="1.51"/><path d="M-170,182L-98,264L-34,191Z" fill="#d6efd3" stroke="#d6efd3" stroke-width="1.51"/><path d="M156,-135L102,-114L187,8Z" fill="#e1f4db" stroke="#e1f4db" stroke-width="1.51"/><path d="M1708,224L1668,79L1590,174Z" fill="#7890a4" stroke="#7890a4" stroke-width="1.51"/><path d="M1668,79L1612,-16L1563,74Z" fill="#8094ac" stroke="#8094ac" stroke-width="1.51"/><path d="M-98,264L-157,402L-3,339Z" fill="#c6e9d0" stroke="#c6e9d0" stroke-width="1.51"/><path d="M-130,537L-171,622L-61,541Z" fill="#acd9dd" stroke="#acd9dd" stroke-width="1.51"/><path d="M-27,1104L26,1123L67,961Z" fill="#8394af" stroke="#8394af" stroke-width="1.51"/><path d="M136,1078L26,1123L288,1124Z" fill="#7e92a9" stroke="#7e92a9" stroke-width="1.51"/><path d="M288,1124L26,1123L487,1138Z" fill="#7990a4" stroke="#7990a4" stroke-width="1.51"/><path d="M1656,-44L1588,-75L1612,-16Z" fill="#8595b2" stroke="#8595b2" stroke-width="1.51"/><path d="M1612,-16L1588,-75L1465,-2Z" fill="#879cb7" stroke="#879cb7" stroke-width="1.51"/><path d="M-108,703L-147,776L-38,821Z" fill="#9abfd2" stroke="#9abfd2" stroke-width="1.51"/><path d="M-157,402L-171,622L-130,537Z" fill="#b3dddc" stroke="#b3dddc" stroke-width="1.51"/><path d="M-171,622L-147,776L-108,703Z" fill="#a1c8d9" stroke="#a1c8d9" stroke-width="1.51"/><path d="M-72,1035L-27,1104L67,961Z" fill="#8698b4" stroke="#8698b4" stroke-width="1.51"/><path d="M-57,32L87,126L101,-6Z" fill="#ddf2d7" stroke="#ddf2d7" stroke-width="1.51"/><path d="M-98,264L-170,182L-157,402Z" fill="#cfedd1" stroke="#cfedd1" stroke-width="1.51"/><path d="M-68,-82L-57,32L101,-6Z" fill="#e4f5de" stroke="#e4f5de" stroke-width="1.51"/><path d="M1542,1094L1645,1117L1584,983Z" fill="#094384" stroke="#094384" stroke-width="1.51"/><path d="M1638,962L1645,1117L1660,877Z" fill="#09498a" stroke="#09498a" stroke-width="1.51"/><path d="M1417,1124L1645,1117L1542,1094Z" fill="#094889" stroke="#094889" stroke-width="1.51"/><path d="M1308,1133L1645,1117L1417,1124Z" fill="#094f91" stroke="#094f91" stroke-width="1.51"/><path d="M-72,1035L67,961L-60,909Z" fill="#8aa2be" stroke="#8aa2be" stroke-width="1.51"/><path d="M-166,941L-72,1035L-60,909Z" fill="#8ea4c2" stroke="#8ea4c2" stroke-width="1.51"/><path d="M1668,79L1656,-44L1612,-16Z" fill="#8293ae" stroke="#8293ae" stroke-width="1.51"/><path d="M1588,-75L1679,-142L1450,-139Z" fill="#8d9cbb" stroke="#8d9cbb" stroke-width="1.51"/><path d="M1679,-142L1656,-44L1668,79Z" fill="#8495b0" stroke="#8495b0" stroke-width="1.51"/><path d="M-95,-10L-131,91L-57,32Z" fill="#e5f5de" stroke="#e5f5de" stroke-width="1.51"/><path d="M-57,32L-131,91L-76,101Z" fill="#e2f4db" stroke="#e2f4db" stroke-width="1.51"/><path d="M-76,101L-170,182L-34,191Z" fill="#dcf1d5" stroke="#dcf1d5" stroke-width="1.51"/><path d="M-131,91L-170,182L-76,101Z" fill="#e0f3d9" stroke="#e0f3d9" stroke-width="1.51"/><path d="M-157,402L-170,182L-171,622Z" fill="#c1e6d6" stroke="#c1e6d6" stroke-width="1.51"/><path d="M-131,91L-121,-144L-170,182Z" fill="#e6f6e0" stroke="#e6f6e0" stroke-width="1.51"/><path d="M-68,-82L-95,-10L-57,32Z" fill="#e7f6e1" stroke="#e7f6e1" stroke-width="1.51"/><path d="M-72,1035L-133,1083L-27,1104Z" fill="#8896b3" stroke="#8896b3" stroke-width="1.51"/><path d="M-147,776L-166,941L-60,909Z" fill="#95b1cd" stroke="#95b1cd" stroke-width="1.51"/><path d="M-171,622L-166,941L-147,776Z" fill="#9cbed5" stroke="#9cbed5" stroke-width="1.51"/><path d="M102,-114L-68,-82L101,-6Z" fill="#e5f5df" stroke="#e5f5df" stroke-width="1.51"/><path d="M-95,-10L-121,-144L-131,91Z" fill="#eaf7e3" stroke="#eaf7e3" stroke-width="1.51"/><path d="M-121,-144L-68,-82L102,-114Z" fill="#ecf8e5" stroke="#ecf8e5" stroke-width="1.51"/><path d="M-164,1029L-133,1083L-72,1035Z" fill="#8a97b6" stroke="#8a97b6" stroke-width="1.51"/><path d="M-27,1104L-133,1083L26,1123Z" fill="#8695b2" stroke="#8695b2" stroke-width="1.51"/><path d="M-166,941L-164,1029L-72,1035Z" fill="#8e9fbe" stroke="#8e9fbe" stroke-width="1.51"/><path d="M1708,224L1679,-142L1668,79Z" fill="#7f93ab" stroke="#7f93ab" stroke-width="1.51"/><path d="M1656,-44L1679,-142L1588,-75Z" fill="#8896b4" stroke="#8896b4" stroke-width="1.51"/><path d="M1450,-139L-121,-144L778,-130Z" fill="#bce4d8" stroke="#bce4d8" stroke-width="1.51"/><path d="M-68,-82L-121,-144L-95,-10Z" fill="#edf8e6" stroke="#edf8e6" stroke-width="1.51"/><path d="M156,-135L-121,-144L102,-114Z" fill="#e9f7e3" stroke="#e9f7e3" stroke-width="1.51"/><path d="M1679,-142L-121,-144L1450,-139Z" fill="#a8d1de" stroke="#a8d1de" stroke-width="1.51"/></svg>
